<?xml version="1.0"?><svg width="640" height="480" xmlns="http://www.w3.org/2000/svg">
 <title>All about me rihanna</title>
 <g>
  <title>Layer 1</title>
  <g id="g830">
   <path d="m374.71521,325.491241l52.480194,26.624664l-28.900818,-46.348877l75.740387,11.587555l-44.84668,-26.070892l83.712952,0l-77.733368,-15.932739l68.764374,-20.224274l-57.90213,-8.1548l30.007751,-24.957825l-47.287537,4.662888l17.38031,-31.710892l-45.075226,19.671036l-10.595398,-29.221527l-32.03894,26.189224c0,-1.819016 -18.805664,-25.817795 -19.802124,-25.817795c-0.99649,0 -19.38327,25.329239 -19.38327,25.329239l-33.55481,-23.392471l-8.421326,27.519684l-31.432251,-23.562744c0,0 -0.687286,26.323898 -2.680206,26.323898c-1.99292,0 -47.597488,-16.32048 -47.597488,-16.32048c0,0 10.942825,29.980072 10.942825,30.704178c0,0.724091 -49.480637,-5.222153 -49.480637,-5.222153l40.750305,21.625366l-43.182007,9.868134c0,0 36.196198,18.311005 35.199585,19.035156c-0.996536,0.72406 -32.000275,19.128693 -32.000275,19.128693c0,0 55.260178,-0.905853 54.263718,-0.905853c-0.109695,0.606323 -52.838257,27.583679 -52.838257,28.30777c0,0.724121 57.373444,-9.650116 57.373444,-9.650116l-38.657715,37.69342l64.458557,-30.568878l-13.623032,33.177246l37.979477,-20.830597l2.11261,22.278778l36.884125,-19.988708l21.89032,32.43335l14.314789,-31.573395l26.559631,13.606445l6.21814,-25.311707z" id="path816" stroke-width="2.15822" fill-rule="evenodd" fill-opacity="0.5" fill="#000000"/>
   <path d="m360.353271,316.489655l52.480133,26.624664l-28.900726,-46.348877l75.740387,11.587524l-44.84671,-26.070862l83.712952,0l-77.733337,-15.93277l68.764343,-20.224258l-57.902161,-8.1548l30.007751,-24.957825l-47.287506,4.662903l17.38031,-31.710907l-45.075226,19.671051l-10.595428,-29.221527l-32.03891,26.189224c0,-1.819016 -18.805695,-25.817825 -19.802124,-25.817825c-0.99646,0 -19.38327,25.329239 -19.38327,25.329239l-33.55481,-23.392441l-8.421295,27.519684l-31.432266,-23.562775c0,0 -0.687302,26.323914 -2.680222,26.323914c-1.99292,0 -47.597488,-16.320465 -47.597488,-16.320465c0,0 10.94281,29.980057 10.94281,30.704147c0,0.724121 -49.480606,-5.222137 -49.480606,-5.222137l40.750305,21.625366l-43.182037,9.868149c0,0 36.196228,18.311035 35.1996,19.035126c-0.996552,0.724091 -32.00029,19.128723 -32.00029,19.128723c0,0 55.260193,-0.905884 54.263733,-0.905884c-0.109695,0.606323 -52.838257,27.583679 -52.838257,28.3078c0,0.724152 57.373474,-9.650085 57.373474,-9.650085l-38.657745,37.693359l64.458572,-30.568878l-13.623032,33.177216l37.979492,-20.830566l2.112579,22.278809l36.884094,-19.988739l23.087189,27.523438l13.11795,-26.663422l26.559631,13.606415l6.21814,-25.311707z" id="path599" stroke-linejoin="round" stroke-width="10" stroke="#000000" fill-rule="evenodd" fill="#000000"/>
  </g>
  <text transform="matrix(1.8543803289397751,0,0,1.9251669231650124,-298.3089755096763,-267.3151329476109) " xml:space="preserve" text-anchor="middle" font-family="Fantasy" font-size="24" id="svg_1" y="197.432787" x="276" stroke-width="0" stroke="#000000" fill="#ffffff">All about me</text>
  <text id="svg_2" transform="matrix(1.8543803289397751,0,0,1.9251669231650124,-216.30897550967632,-153.31513294761095) " xml:space="preserve" text-anchor="middle" font-family="Fantasy" font-size="24" y="223.923996" x="287.324538" stroke-width="0" stroke="#000000" fill="#ffffff">All about me</text>
 </g>
</svg>